<svg width="450" height="140" viewBox="0 0 450 140" fill="none" xmlns="http://www.w3.org/2000/svg">
<rect width="449.575" height="139.456" rx="9.75218" fill="#13A4CC"/>
<mask id="mask0_3554_49932" style="mask-type:alpha" maskUnits="userSpaceOnUse" x="0" y="0" width="450" height="140">
<path d="M0 10C0 4.47716 4.47715 0 10 0H439.575C445.098 0 449.575 4.47715 449.575 10V129.456C449.575 134.979 445.098 139.456 439.575 139.456H10C4.47715 139.456 0 134.979 0 129.456V10Z" fill="#2772B1"/>
</mask>
<g mask="url(#mask0_3554_49932)">
<path d="M328.17 44.5574C381.536 47.0526 431.344 84.8075 449.577 103.373V0H254.347C221.438 10.2482 209.876 24.061 148.95 53.0232C100.337 76.132 35.9921 64.1626 9.75391 53.4688C19.9824 58.2216 50.6758 72.6475 93.3603 75.3019C157.844 79.3121 261.463 41.4384 328.17 44.5574Z" fill="white" fill-opacity="0.1"/>
<path d="M268.469 14.8624C330.41 -10.6584 415.015 10.609 449.576 24.4328V80.9432C443.642 75.0187 418.961 58.6125 367.699 40.3833C303.622 17.5968 234.65 43.5734 185.258 60.8911C150.935 72.9251 109.875 74.5978 87.0411 73.7345C82.9472 73.72 79.909 73.4906 78.0176 73.1958C80.5509 73.4153 83.5875 73.6039 87.0411 73.7345C97.715 73.7724 115.566 72.3494 138.98 66.8156C179.473 57.2453 191.042 46.7635 268.469 14.8624Z" fill="white" fill-opacity="0.1"/>
<path d="M0 29.5526V0.00444871H211.444C211.517 -0.00157845 211.576 -0.00138658 211.622 0.00444871H211.444C209.91 0.130542 202.198 2.97858 181.498 13.8192C154.386 28.0177 104.314 65.0199 45.9365 51.8097C35.7617 49.5072 11.6694 38.3787 0 29.5526Z" fill="white" fill-opacity="0.1"/>
</g>
</svg>
